<svg width="38" height="33" viewBox="0 0 38 33" fill="none" xmlns="http://www.w3.org/2000/svg">
<path d="M1 26.6805V1.78775C1 1.35269 1.35269 1 1.78775 1H36.2123C36.6473 1 37 1.35269 37 1.78775V26.6805C37 27.1156 36.6473 27.4683 36.2123 27.4683H1.78775C1.35269 27.4683 1 27.1156 1 26.6805Z" stroke="white" stroke-width="0.678673"/>
<path d="M2.41797 23.5299V3.28482C2.41797 2.84976 2.77066 2.49707 3.20572 2.49707H34.3217C34.7567 2.49707 35.1094 2.84976 35.1094 3.28482V23.5299C35.1094 23.965 34.7567 24.3176 34.3217 24.3176H3.20571C2.77065 24.3176 2.41797 23.965 2.41797 23.5299Z" stroke="white" stroke-width="0.3"/>
<path d="M4.93945 19.7481V6.67152C4.93945 5.71439 5.71536 4.93848 6.6725 4.93848H30.9351C31.8922 4.93848 32.6681 5.71439 32.6681 6.67152V19.7481C32.6681 20.7052 31.8922 21.4811 30.9351 21.4811H6.67249C5.71536 21.4811 4.93945 20.7052 4.93945 19.7481Z" fill="white"/>
<path d="M15.5725 4.11991C12.3428 3.25344 6.74976 7.1133 6.74976 7.1133V20.8201C6.74976 20.8201 12.2711 17.4527 15.9664 18.5357C17.1417 18.8801 18.8023 19.8748 18.8023 19.8748V5.93173C18.8023 5.93173 18.8023 4.98639 15.5725 4.11991Z" fill="#095198" stroke="white" stroke-width="0.472648"/>
<path d="M22.0315 4.11991C25.2613 3.25344 30.8542 7.1133 30.8542 7.1133V20.8201C30.8542 20.8201 25.3329 17.4527 21.6376 18.5357C20.4623 18.8801 18.8017 19.8748 18.8017 19.8748V5.93173C18.8017 5.93173 18.8017 4.98639 22.0315 4.11991Z" fill="#095198" stroke="white" stroke-width="0.472648"/>
<path d="M7.99976 9.12717C7.99976 9.12717 11.3061 7.02649 13.6715 7.00025C15.017 6.98533 17.0588 7.63045 17.0588 7.63045" stroke="white" stroke-width="0.5"/>
<path d="M29.9099 9.2717C29.9099 9.2717 26.6036 7.17102 24.2381 7.14479C22.8927 7.12987 20.8508 7.77498 20.8508 7.77498" stroke="white" stroke-width="0.5"/>
<path d="M29.9099 11.0041C29.9099 11.0041 26.6036 8.90344 24.2381 8.87721C22.8927 8.86229 20.8508 9.5074 20.8508 9.5074" stroke="white" stroke-width="0.5"/>
<path d="M7.99976 11.754C7.99976 11.754 11.1343 10.0259 13.4998 9.99963C14.8452 9.98471 17.0588 10.2573 17.0588 10.2573" stroke="white" stroke-width="0.5"/>
<path d="M7.99976 14.381C7.99976 14.381 10.6343 12.5256 12.9998 12.4994C14.3452 12.4845 17.0588 12.8843 17.0588 12.8843" stroke="white" stroke-width="0.5"/>
<path d="M7.99976 17.008C7.99976 17.008 11.3061 14.9073 13.6715 14.8811C15.017 14.8662 17.0588 15.5113 17.0588 15.5113" stroke="white" stroke-width="0.5"/>
<rect x="10.9004" y="28.1797" width="16.2001" height="1.80001" fill="white"/>
<path d="M2.7998 32.5715C2.7998 31.5774 3.6057 30.7715 4.59981 30.7715H33.4C34.3941 30.7715 35.2 31.5774 35.2 32.5715V32.5715H2.7998V32.5715Z" fill="white"/>
</svg>
