<svg width="348" height="62" viewBox="0 0 348 62" fill="none" xmlns="http://www.w3.org/2000/svg">
<path d="M21.8581 50.0527V24.5717H13.4047V50.0527H21.8581ZM0 10.2008V18.6543H35.927V10.2008H0Z" fill="white"/>
<path d="M98.0786 10.3216C87.0891 10.3216 78.213 19.2581 78.213 30.1872C78.213 41.1766 87.0891 50.0527 98.0786 50.0527C109.008 50.0527 117.944 41.1766 117.944 30.1872C117.944 19.2581 109.008 10.3216 98.0786 10.3216ZM109.611 30.1872C109.611 36.5876 104.419 41.7804 98.0786 41.7804C91.6781 41.7804 86.4853 36.5876 86.4853 30.1872C86.4853 23.8471 91.6781 18.6543 98.0786 18.6543C104.419 18.6543 109.611 23.8471 109.611 30.1872Z" fill="white"/>
<path d="M185.196 10.8047C185.196 10.8047 184.653 10.6235 183.808 10.4424C182.962 10.3216 182.057 10.2008 182.057 10.2008H160.259V18.6543H179.883V18.7146H181.272L181.332 18.6543C181.392 18.6543 181.453 18.6543 181.513 18.6543C183.143 18.6543 184.411 19.9827 184.411 21.5526C184.411 23.1829 183.143 24.4509 181.513 24.4509H160.259V50.0527H168.712V32.9647H182.359C182.359 32.9647 182.6 32.9647 184.11 32.6024C185.619 32.2401 185.68 32.1797 185.68 32.1797C187.249 31.5155 188.699 30.5494 189.846 29.2814C191.838 27.2285 192.865 24.4509 192.865 21.5526C192.865 16.6013 189.725 12.3746 185.196 10.8047Z" fill="white"/>
<path d="M225.175 47.6978L223.907 50.0527H234.534L234.957 49.2677L243.592 33.6289L238.278 24.0886L225.175 47.6978ZM268.771 47.6978L251.864 17.2051L248.362 10.9254L247.999 10.0801H245.946L245.524 10.9254L242.082 17.2051L241.659 17.9901L246.973 27.5907L247.094 27.8323L258.989 49.2677L259.412 50.0527H270.039L268.771 47.6978Z" fill="white"/>
<path d="M314.539 41.5993L314.056 42.2635L310.795 46.7317L310.493 47.1544V50.0527H346.42V41.5993H314.539ZM318.826 35.6819H329.332L342.254 17.9901L346.119 12.7369L347.93 10.2008H310.493V18.6543H331.265L318.826 35.6819Z" fill="white"/>
<path d="M119.823 35.1101L116.1 44.1535L128.601 39.0999L119.823 35.1101Z" fill="#00ADEF"/>
<path d="M114.77 47.0793L127.005 41.7597L110.248 58.7826L114.77 47.0793Z" fill="#BED9FF"/>
<path d="M93.491 0L117.695 6.11761L104.13 8.24547L93.491 0Z" fill="#BED9FF"/>
<path d="M90.5652 0L91.3632 9.57539L100.939 8.24547L90.5652 0Z" fill="#00ADEF"/>
<path d="M112.642 14.3631L120.355 8.24547L118.759 22.3426L112.642 14.3631Z" fill="#00ADEF"/>
<path d="M122.483 11.4373L121.153 25.0024L128.867 35.1098L122.483 11.4373Z" fill="#BED9FF"/>
<path d="M95.0869 52.6646L104.928 51.6007L105.992 61.1761L95.0869 52.6646Z" fill="#00ADEF"/>
<path d="M92.4271 52.6646L79.1279 54.5265L102.8 61.1761L92.4271 52.6646Z" fill="#BED9FF"/>
<path d="M77.2661 38.8335L75.6702 52.6646L83.3837 46.813L77.2661 38.8335Z" fill="#00ADEF"/>
<path d="M67.6907 26.0663L73.8083 49.7388L75.6702 35.9077L67.6907 26.0663Z" fill="#BED9FF"/>
<path d="M86.8414 1.32991L69.5526 19.1508L82.0538 14.3631L86.8414 1.32991Z" fill="#BED9FF"/>
<path d="M67.6907 21.5446L80.4579 16.7569L77.2661 26.0663L67.6907 21.5446Z" fill="#00ADEF"/>
</svg>
