<svg width="86" height="76" viewBox="0 0 86 76" fill="none" xmlns="http://www.w3.org/2000/svg">
<g filter="url(#filter0_d_681_60)">
<rect x="4" width="78" height="68" rx="13" fill="white"/>
</g>
<path d="M27.2213 41.1407L24.4072 24.2562H56.166" stroke="#EFAC00" stroke-width="2"/>
<path d="M62.9998 17.4221H57.7737L53.3516 40.5377" stroke="#EFAC00" stroke-width="2"/>
<path d="M27.4224 40.5377H54.156C55.6971 41.6767 57.8545 44.4372 54.156 46.3669H27.4224" stroke="#EFAC00" stroke-width="2"/>
<circle cx="27.3216" cy="50.6886" r="3.32161" stroke="#EFAC00" stroke-width="2"/>
<circle cx="50.638" cy="50.6886" r="3.32161" stroke="#EFAC00" stroke-width="2"/>
<path d="M31.4424 24.2562L33.6534 40.7386" stroke="#EFAC00" stroke-width="2"/>
<path d="M41.2913 23.8542C40.9273 24.699 41.1397 35.3285 41.2913 40.5377" stroke="#EFAC00" stroke-width="2"/>
<path d="M49.131 24.2562L46.9199 40.5376" stroke="#EFAC00" stroke-width="2"/>
<path d="M25.2109 32.6986H55.3617" stroke="#EFAC00" stroke-width="2"/>
<circle cx="40.2864" cy="22.6482" r="8.64825" fill="white" stroke="#EFAC00" stroke-width="2"/>
<path d="M35.4485 22.4306L38.9779 26.3921L46.0764 19.1105" stroke="#EFAC00" stroke-width="2"/>
<defs>
<filter id="filter0_d_681_60" x="0" y="0" width="86" height="76" filterUnits="userSpaceOnUse" color-interpolation-filters="sRGB">
<feFlood flood-opacity="0" result="BackgroundImageFix"/>
<feColorMatrix in="SourceAlpha" type="matrix" values="0 0 0 0 0 0 0 0 0 0 0 0 0 0 0 0 0 0 127 0" result="hardAlpha"/>
<feOffset dy="4"/>
<feGaussianBlur stdDeviation="2"/>
<feComposite in2="hardAlpha" operator="out"/>
<feColorMatrix type="matrix" values="0 0 0 0 0.9625 0 0 0 0 0.847456 0 0 0 0 0.429115 0 0 0 1 0"/>
<feBlend mode="normal" in2="BackgroundImageFix" result="effect1_dropShadow_681_60"/>
<feBlend mode="normal" in="SourceGraphic" in2="effect1_dropShadow_681_60" result="shape"/>
</filter>
</defs>
</svg>
