<svg width="86" height="76" viewBox="0 0 86 76" fill="none" xmlns="http://www.w3.org/2000/svg">
<g filter="url(#filter0_d_2064_913)">
<rect x="4" width="78" height="68" rx="13" fill="white"/>
</g>
<path d="M23 36.5778L27.2667 31.6L42.3778 36.5778L38.2889 42.0889L23 36.5778Z" stroke="#B592E1" stroke-width="2"/>
<path d="M42.5557 36.5777L59.2668 30.7111L63.0001 35.3333L45.9334 41.5555L42.5557 36.5777Z" stroke="#B592E1" stroke-width="2"/>
<path d="M32.9556 23.2444L23 26.7999L27.2667 31.2444L33.8444 28.9333" stroke="#B592E1" stroke-width="2"/>
<path d="M55 22.8889L62.8222 25.9111L59.0889 30.8889L53.0444 28.7556" stroke="#B592E1" stroke-width="2"/>
<path d="M42.2002 36.5778V53.6444" stroke="#B592E1" stroke-width="2"/>
<path d="M60.1557 36.5778V47.4014L42.3779 53.8222" stroke="#B592E1" stroke-width="2"/>
<path d="M25.4888 37.8223V48.035L43 54" stroke="#B592E1" stroke-width="2"/>
<path d="M51.3334 22.8C51.3334 27.1174 47.8714 30.6 43.6222 30.6C39.3731 30.6 35.9111 27.1174 35.9111 22.8C35.9111 18.4826 39.3731 15 43.6222 15C47.8714 15 51.3334 18.4826 51.3334 22.8Z" stroke="#B592E1" stroke-width="2"/>
<path d="M40.1642 22.3983L42.7135 25.2598L47.841 20.0001" stroke="#B592E1" stroke-width="2"/>
<defs>
<filter id="filter0_d_2064_913" x="0" y="0" width="86" height="76" filterUnits="userSpaceOnUse" color-interpolation-filters="sRGB">
<feFlood flood-opacity="0" result="BackgroundImageFix"/>
<feColorMatrix in="SourceAlpha" type="matrix" values="0 0 0 0 0 0 0 0 0 0 0 0 0 0 0 0 0 0 127 0" result="hardAlpha"/>
<feOffset dy="4"/>
<feGaussianBlur stdDeviation="2"/>
<feComposite in2="hardAlpha" operator="out"/>
<feColorMatrix type="matrix" values="0 0 0 0 0.809421 0 0 0 0 0.680573 0 0 0 0 0.9125 0 0 0 1 0"/>
<feBlend mode="normal" in2="BackgroundImageFix" result="effect1_dropShadow_2064_913"/>
<feBlend mode="normal" in="SourceGraphic" in2="effect1_dropShadow_2064_913" result="shape"/>
</filter>
</defs>
</svg>
