<svg width="31" height="41" viewBox="0 0 31 41" fill="none" xmlns="http://www.w3.org/2000/svg">
<path d="M30.7499 15.3749C30.7499 6.89704 23.8527 0 15.3749 0C6.8972 0 0 6.89704 0 15.3749C0 20.7291 2.75164 25.4518 6.91441 28.2059V40.1457C6.91441 40.4753 7.1042 40.7757 7.40201 40.9172C7.51876 40.9727 7.644 41 7.76861 41C7.96151 41 8.15274 40.9347 8.30817 40.8082L15.3748 35.0542L22.4415 40.8078C22.6974 41.0161 23.0503 41.0585 23.348 40.9166C23.6459 40.7749 23.8356 40.4742 23.8352 40.1443L23.8228 28.2142C27.9926 25.4614 30.7499 20.7344 30.7499 15.3749ZM15.9142 33.2899C15.6 33.0342 15.1495 33.0342 14.8354 33.2899L8.62312 38.3482V29.1855C10.6625 30.1866 12.954 30.7498 15.375 30.7498C17.7912 30.7498 20.0788 30.1888 22.1153 29.1913L22.1247 38.3465L15.9142 33.2899ZM15.3749 29.0412C7.83931 29.0412 1.70862 22.9105 1.70862 15.3749C1.70862 7.83931 7.83931 1.70862 15.3749 1.70862C22.9105 1.70862 29.0412 7.83931 29.0412 15.3749C29.0412 22.9105 22.9105 29.0412 15.3749 29.0412Z" fill="white"/>
<path d="M16.2291 4.27037C16.2291 3.79855 15.8466 3.41602 15.3747 3.41602C8.78084 3.41602 3.41626 8.78052 3.41626 15.3745C3.41626 15.5548 3.42058 15.7393 3.42899 15.9225C3.45005 16.3805 3.82786 16.7376 4.28166 16.7376C4.2948 16.7376 4.30825 16.7374 4.32154 16.7367C4.79296 16.715 5.15739 16.3153 5.13569 15.844C5.12841 15.6867 5.12472 15.5287 5.12472 15.3744C5.12472 9.72264 9.72272 5.12456 15.3745 5.12456C15.8466 5.12464 16.2291 4.74219 16.2291 4.27037Z" fill="white"/>
<path d="M27.3206 14.8268C27.2987 14.3555 26.8978 13.9882 26.4277 14.0129C25.9563 14.0347 25.5919 14.4345 25.6138 14.9058C25.6209 15.0597 25.6244 15.2176 25.6244 15.3751C25.6244 21.0268 21.0264 25.6249 15.3746 25.6249C14.9029 25.6249 14.5203 26.0075 14.5203 26.4793C14.5203 26.9511 14.9028 27.3336 15.3746 27.3336C21.9686 27.3336 27.3331 21.9691 27.3331 15.3752C27.3331 15.1913 27.329 15.0069 27.3206 14.8268Z" fill="white"/>
<path d="M15.3743 22.472C15.3745 22.472 15.3746 22.472 15.3747 22.472C15.6447 22.472 15.8989 22.3443 16.0601 22.1278L17.8725 19.6926L20.8791 19.3452C21.1475 19.3143 21.3854 19.1581 21.5206 18.924C21.6559 18.6901 21.6725 18.406 21.5654 18.1579L20.3627 15.3708L21.5651 12.5933C21.6724 12.3454 21.656 12.0613 21.5211 11.8271C21.3862 11.5931 21.1484 11.4367 20.8801 11.4053L17.8649 11.0532L16.0607 8.6233C15.8996 8.40636 15.6454 8.27848 15.3752 8.27832C15.3751 8.27832 15.3749 8.27832 15.3747 8.27832C15.1048 8.27832 14.8506 8.40596 14.6895 8.62258L12.8773 11.0577L9.87081 11.4051C9.60239 11.436 9.36456 11.5922 9.22923 11.8263C9.09406 12.0602 9.0774 12.3443 9.18454 12.5924L10.3872 15.3795L9.18486 18.157C9.07756 18.4049 9.0939 18.689 9.22875 18.9232C9.36376 19.1572 9.60151 19.3136 9.86985 19.345L12.8849 19.6971L14.689 22.127C14.85 22.3439 15.1041 22.4718 15.3743 22.472ZM13.4495 18.0428L11.2093 17.7812L12.1017 15.7194C12.1953 15.5032 12.1955 15.2579 12.1021 15.0415L11.2085 12.9707L13.4401 12.7129C13.6742 12.6859 13.8868 12.5633 14.0275 12.3742L15.3741 10.5649L16.7132 12.3685C16.8536 12.5576 17.0661 12.6803 17.3 12.7078L19.5405 12.9694L18.648 15.0311C18.5544 15.2473 18.5543 15.4926 18.6476 15.7091L19.5413 17.7799L17.3097 18.0377C17.0757 18.0647 16.863 18.1873 16.7224 18.3763L15.3756 20.1858L14.0364 18.3822C13.8959 18.1928 13.6835 18.0701 13.4495 18.0428Z" fill="white"/>
<path d="M5.46548 17.9952C5.33655 17.5412 4.86353 17.2757 4.40973 17.4047C3.95585 17.5336 3.69183 18.0039 3.82067 18.4578L3.82732 18.4823C3.93423 18.8585 4.27752 19.1054 4.65044 19.1054C4.72732 19.1054 4.80539 19.0949 4.88315 19.0729C5.33703 18.9439 5.60105 18.4736 5.47228 18.0197L5.46548 17.9952Z" fill="white"/>
<path d="M26.1054 13.3763C26.1747 13.3763 26.2454 13.3677 26.3156 13.3499C26.773 13.2342 27.0501 12.7695 26.9343 12.3122C26.9309 12.2992 26.9275 12.2857 26.9239 12.2727C26.7976 11.8181 26.3267 11.5526 25.8722 11.6789C25.4175 11.8052 25.1516 12.2768 25.2779 12.7314C25.3758 13.1185 25.7235 13.3763 26.1054 13.3763Z" fill="white"/>
</svg>
