<svg width="86" height="76" viewBox="0 0 86 76" fill="none" xmlns="http://www.w3.org/2000/svg">
<g filter="url(#filter0_d_2064_911)">
<rect x="4" width="78" height="68" rx="13" fill="white"/>
</g>
<path d="M41.8395 36.7741C35.2538 37.0277 33.1742 31.3853 32.9575 28.5324C32.9575 25.7429 33.3908 22.2279 33.6074 20.819C34.8206 14.6483 39.601 13.0352 41.8395 13C48.9451 13.0845 50.7938 19.5863 50.8299 22.8266V28.5324C50.05 35.9711 44.5114 37.1263 41.8395 36.7741Z" stroke="#88C15B" stroke-width="2"/>
<path d="M58.4894 52.5744H27C27 40.9027 36.9663 37.4984 41.9495 37.2552C54.9269 37.2552 58.3833 47.468 58.4894 52.5744Z" stroke="#88C15B" stroke-width="2"/>
<path d="M49.979 38.9574V53" stroke="#88C15B" stroke-width="2"/>
<path d="M35.085 39.3831V52.5745" stroke="#88C15B" stroke-width="2"/>
<defs>
<filter id="filter0_d_2064_911" x="0" y="0" width="86" height="76" filterUnits="userSpaceOnUse" color-interpolation-filters="sRGB">
<feFlood flood-opacity="0" result="BackgroundImageFix"/>
<feColorMatrix in="SourceAlpha" type="matrix" values="0 0 0 0 0 0 0 0 0 0 0 0 0 0 0 0 0 0 127 0" result="hardAlpha"/>
<feOffset dy="4"/>
<feGaussianBlur stdDeviation="2"/>
<feComposite in2="hardAlpha" operator="out"/>
<feColorMatrix type="matrix" values="0 0 0 0 0.616605 0 0 0 0 0.829167 0 0 0 0 0.449132 0 0 0 1 0"/>
<feBlend mode="normal" in2="BackgroundImageFix" result="effect1_dropShadow_2064_911"/>
<feBlend mode="normal" in="SourceGraphic" in2="effect1_dropShadow_2064_911" result="shape"/>
</filter>
</defs>
</svg>
