<svg width="178" height="21" viewBox="0 0 178 21" fill="none" xmlns="http://www.w3.org/2000/svg">
<path d="M11.1782 20.5981V7.56719H6.85512V20.5981H11.1782ZM0 0.218009V4.54106H18.3729V0.218009H0Z" fill="#0A3B80"/>
<path d="M50.157 0.279766C44.537 0.279766 39.9978 4.84985 39.9978 10.4389C39.9978 16.0589 44.537 20.5981 50.157 20.5981C55.7461 20.5981 60.3161 16.0589 60.3161 10.4389C60.3161 4.84985 55.7461 0.279766 50.157 0.279766ZM56.0548 10.4389C56.0548 13.7121 53.3993 16.3677 50.157 16.3677C46.8838 16.3677 44.2282 13.7121 44.2282 10.4389C44.2282 7.19665 46.8838 4.54106 50.157 4.54106C53.3993 4.54106 56.0548 7.19665 56.0548 10.4389Z" fill="#00ADEF"/>
<path d="M94.7087 0.526798C94.7087 0.526798 94.4308 0.43416 93.9985 0.341525C93.5662 0.279766 93.103 0.218009 93.103 0.218009H81.9557V4.54106H91.9914V4.57194H92.7016L92.7325 4.54106C92.7633 4.54106 92.7942 4.54106 92.8251 4.54106C93.6588 4.54106 94.3073 5.2204 94.3073 6.02325C94.3073 6.85698 93.6588 7.50544 92.8251 7.50544H81.9557V20.5981H86.2788V11.8594H93.2574C93.2574 11.8594 93.3809 11.8594 94.1529 11.6741C94.9249 11.4888 94.9557 11.4579 94.9557 11.4579C95.7586 11.1183 96.4997 10.6242 97.0864 9.97575C98.1054 8.92587 98.6303 7.50544 98.6303 6.02325C98.6303 3.49118 97.0246 1.32965 94.7087 0.526798Z" fill="#0A3B80"/>
<path d="M115.154 19.3938L114.505 20.5981H119.94L120.156 20.1967L124.572 12.199L121.854 7.32016L115.154 19.3938ZM137.448 19.3938L128.802 3.79996L127.011 0.588557L126.826 0.15625H125.776L125.56 0.588557L123.8 3.79996L123.584 4.20139L126.301 9.11114L126.363 9.23465L132.446 20.1967L132.662 20.5981H138.097L137.448 19.3938Z" fill="#0A3B80"/>
<path d="M160.854 16.2751L160.607 16.6147L158.939 18.8998L158.785 19.1159V20.5981H177.158V16.2751H160.854ZM163.046 13.2489H168.419L175.027 4.20139L177.004 1.51492L177.93 0.218009H158.785V4.54106H169.407L163.046 13.2489Z" fill="#0A3B80"/>
</svg>
