<svg width="178" height="32" viewBox="0 0 178 32" fill="none" xmlns="http://www.w3.org/2000/svg">
<path d="M11.1782 25.5981V12.5672H6.85512V25.5981H11.1782ZM0 5.21801V9.54106H18.3729V5.21801H0Z" fill="#0A3B80"/>
<path d="M50.157 5.27977C44.537 5.27977 39.9978 9.84985 39.9978 15.4389C39.9978 21.0589 44.537 25.5981 50.157 25.5981C55.7461 25.5981 60.3161 21.0589 60.3161 15.4389C60.3161 9.84985 55.7461 5.27977 50.157 5.27977ZM56.0548 15.4389C56.0548 18.7121 53.3993 21.3677 50.157 21.3677C46.8838 21.3677 44.2282 18.7121 44.2282 15.4389C44.2282 12.1966 46.8838 9.54106 50.157 9.54106C53.3993 9.54106 56.0548 12.1966 56.0548 15.4389Z" fill="#00ADEF"/>
<path d="M94.7087 5.5268C94.7087 5.5268 94.4308 5.43416 93.9985 5.34152C93.5662 5.27977 93.103 5.21801 93.103 5.21801H81.9557V9.54106H91.9914V9.57194H92.7016L92.7325 9.54106C92.7633 9.54106 92.7942 9.54106 92.8251 9.54106C93.6588 9.54106 94.3073 10.2204 94.3073 11.0232C94.3073 11.857 93.6588 12.5054 92.8251 12.5054H81.9557V25.5981H86.2788V16.8594H93.2574C93.2574 16.8594 93.3809 16.8594 94.1529 16.6741C94.9249 16.4888 94.9557 16.4579 94.9557 16.4579C95.7586 16.1183 96.4997 15.6242 97.0864 14.9757C98.1054 13.9259 98.6303 12.5054 98.6303 11.0232C98.6303 8.49118 97.0246 6.32965 94.7087 5.5268Z" fill="#0A3B80"/>
<path d="M115.154 24.3938L114.505 25.5981H119.94L120.156 25.1967L124.572 17.199L121.854 12.3202L115.154 24.3938ZM137.448 24.3938L128.802 8.79996L127.011 5.58856L126.826 5.15625H125.776L125.56 5.58856L123.8 8.79996L123.584 9.20139L126.301 14.1111L126.363 14.2347L132.446 25.1967L132.662 25.5981H138.097L137.448 24.3938Z" fill="#0A3B80"/>
<path d="M160.854 21.2751L160.607 21.6147L158.939 23.8998L158.785 24.1159V25.5981H177.158V21.2751H160.854ZM163.046 18.2489H168.419L175.027 9.20139L177.004 6.51492L177.93 5.21801H158.785V9.54106H169.407L163.046 18.2489Z" fill="#0A3B80"/>
<path d="M61.2757 17.9536L59.3714 22.5784L65.7645 19.994L61.2757 17.9536Z" fill="#00ADEF"/>
<path d="M58.6913 24.0746L64.9483 21.3542L56.3789 30.0596L58.6913 24.0746Z" fill="#0A3B80"/>
<path d="M47.8094 0L60.1875 3.12852L53.2504 4.21671L47.8094 0Z" fill="#0A3B80"/>
<path d="M46.3132 0L46.7213 4.89682L51.6181 4.21671L46.3132 0Z" fill="#00ADEF"/>
<path d="M57.6031 7.34523L61.5477 4.21671L60.7316 11.4259L57.6031 7.34523Z" fill="#00ADEF"/>
<path d="M62.6359 5.84898L61.9558 12.7861L65.9005 17.955L62.6359 5.84898Z" fill="#0A3B80"/>
<path d="M48.6256 26.9325L53.6584 26.3884L54.2025 31.2852L48.6256 26.9325Z" fill="#00ADEF"/>
<path d="M47.2653 26.9325L40.4642 27.8847L52.5702 31.2852L47.2653 26.9325Z" fill="#0A3B80"/>
<path d="M39.5121 19.8593L38.6959 26.9325L42.6406 23.94L39.5121 19.8593Z" fill="#00ADEF"/>
<path d="M34.6152 13.3302L37.7438 25.4363L38.6959 18.3631L34.6152 13.3302Z" fill="#0A3B80"/>
<path d="M44.4089 0.680114L35.5674 9.79364L41.9605 7.34523L44.4089 0.680114Z" fill="#0A3B80"/>
<path d="M34.6152 11.0178L41.1443 8.56943L39.5121 13.3302L34.6152 11.0178Z" fill="#00ADEF"/>
</svg>
