<svg width="13" height="16" viewBox="0 0 13 16" fill="none" xmlns="http://www.w3.org/2000/svg">
<path fill-rule="evenodd" clip-rule="evenodd" d="M6.42619 8.03524C8.64505 8.03524 10.4438 6.23649 10.4438 4.01762C10.4438 1.79875 8.64505 0 6.42619 0C4.20732 0 2.40857 1.79875 2.40857 4.01762C2.40857 6.23649 4.20732 8.03524 6.42619 8.03524ZM3.35973 8.65839C2.49608 8.88797 0.670388 9.92435 0.276825 12.2332L0.0472472 14.3322C-0.073008 14.8679 -0.0380246 15.9459 1.06395 15.9721H11.4606C11.8651 16.0596 12.7134 15.9918 12.8708 15.021L12.7068 12.4956C12.674 11.632 11.9853 9.65541 9.49275 8.65839C8.55257 9.34712 6.00972 10.3114 3.35973 8.65839Z" fill="#295A9F"/>
</svg>
