<svg width="30" height="30" viewBox="0 0 30 30" fill="none" xmlns="http://www.w3.org/2000/svg">
<path d="M16.5912 14.4788L22.0783 8.99175C22.2016 8.84776 22.2661 8.66254 22.2588 8.47311C22.2514 8.28367 22.1729 8.10398 22.0389 7.96993C21.9048 7.83588 21.7251 7.75735 21.5357 7.75003C21.3463 7.74271 21.161 7.80715 21.017 7.93046L15.5299 13.4176L10.0429 7.92293C9.89886 7.79962 9.71364 7.73519 9.52421 7.7425C9.33478 7.74982 9.15508 7.82835 9.02103 7.9624C8.88698 8.09645 8.80845 8.27615 8.80113 8.46558C8.79382 8.65501 8.85825 8.84023 8.98156 8.98422L14.4687 14.4788L8.97404 19.9659C8.89524 20.0334 8.83125 20.1165 8.78607 20.2098C8.74089 20.3032 8.7155 20.4049 8.7115 20.5086C8.70749 20.6123 8.72496 20.7156 8.7628 20.8122C8.80064 20.9088 8.85804 20.9965 8.9314 21.0699C9.00475 21.1432 9.09247 21.2006 9.18906 21.2385C9.28565 21.2763 9.38902 21.2938 9.49268 21.2898C9.59634 21.2858 9.69805 21.2604 9.79143 21.2152C9.88481 21.17 9.96785 21.106 10.0353 21.0272L15.5299 15.5401L21.017 21.0272C21.161 21.1505 21.3463 21.215 21.5357 21.2077C21.7251 21.2003 21.9048 21.1218 22.0389 20.9878C22.1729 20.8537 22.2514 20.674 22.2588 20.4846C22.2661 20.2952 22.2016 20.1099 22.0783 19.9659L16.5912 14.4788Z" fill="#0A7CA7"/>
<rect x="0.5" y="0.5" width="29" height="29" rx="3.5" stroke="#0A7CA7"/>
</svg>
